<mxfile host="Electron" agent="Mozilla/5.0 (Windows NT 10.0; Win64; x64) AppleWebKit/537.36 (KHTML, like Gecko) draw.io/28.1.2 Chrome/138.0.7204.243 Electron/37.4.0 Safari/537.36" version="28.1.2">
  <diagram name="Page-1" id="97916047-d0de-89f5-080d-49f4d83e522f">
    <mxGraphModel dx="1497" dy="998" grid="1" gridSize="10" guides="1" tooltips="1" connect="1" arrows="1" fold="1" page="1" pageScale="1.5" pageWidth="1169" pageHeight="827" background="none" math="0" shadow="0">
      <root>
        <mxCell id="0" />
        <mxCell id="1" parent="0" />
        <mxCell id="k4CSAVVTnt-oedxpcEqQ-66" value="&lt;font style=&quot;font-size: 30px;&quot;&gt;&lt;b style=&quot;&quot;&gt;VSCode&lt;/b&gt;&lt;/font&gt;&lt;div&gt;&lt;font style=&quot;font-size: 30px;&quot;&gt;&lt;b style=&quot;&quot;&gt;(Web or Desktop)&lt;/b&gt;&lt;/font&gt;&lt;/div&gt;" style="shape=ext;double=1;rounded=1;whiteSpace=wrap;html=1;fontSize=24;fillColor=#FAC08A;strokeColor=#C73500;fontColor=default;shadow=0;glass=0;sketch=1;curveFitting=1;jiggle=2;" parent="1" vertex="1">
          <mxGeometry x="1040" y="380.12" width="603" height="419.88" as="geometry" />
        </mxCell>
        <mxCell id="PFJihABpT5-H_5MAtVqF-1" value="&lt;font style=&quot;font-size: 36px; color: rgb(3, 3, 3);&quot;&gt;&lt;b style=&quot;&quot;&gt;monaco-editor&lt;/b&gt;&lt;/font&gt;&lt;div&gt;&lt;font style=&quot;font-size: 36px; color: rgb(3, 3, 3);&quot;&gt;&lt;b style=&quot;&quot;&gt;(npm package)&lt;/b&gt;&lt;/font&gt;&lt;/div&gt;&lt;div&gt;&lt;font style=&quot;font-size: 36px; color: rgb(3, 3, 3);&quot;&gt;&lt;b style=&quot;&quot;&gt;&lt;br&gt;&lt;/b&gt;&lt;/font&gt;&lt;/div&gt;&lt;div&gt;&lt;font style=&quot;font-size: 36px; color: rgb(3, 3, 3);&quot;&gt;&lt;b style=&quot;&quot;&gt;&lt;br&gt;&lt;/b&gt;&lt;/font&gt;&lt;/div&gt;" style="shape=ext;double=1;rounded=1;whiteSpace=wrap;html=1;fontSize=24;fillColor=#cdeb8b;strokeColor=#36393d;shadow=0;glass=0;sketch=1;curveFitting=1;jiggle=2;" parent="1" vertex="1">
          <mxGeometry x="100" y="380.12" width="600" height="419.88" as="geometry" />
        </mxCell>
        <mxCell id="PFJihABpT5-H_5MAtVqF-6" style="edgeStyle=orthogonalEdgeStyle;rounded=1;orthogonalLoop=1;jettySize=auto;html=1;strokeWidth=3;dashed=1;endArrow=block;endFill=1;strokeColor=#808080;curved=0;startArrow=none;startFill=0;" parent="1" edge="1">
          <mxGeometry relative="1" as="geometry">
            <Array as="points">
              <mxPoint x="700" y="477.78" />
            </Array>
            <mxPoint x="1190" y="477.78" as="sourcePoint" />
            <mxPoint x="700" y="478" as="targetPoint" />
          </mxGeometry>
        </mxCell>
        <mxCell id="PFJihABpT5-H_5MAtVqF-7" value="&lt;font style=&quot;font-size: 32px;&quot;&gt;artifcially extracted&lt;/font&gt;&lt;div&gt;&lt;font style=&quot;font-size: 32px;&quot;&gt;npm package&lt;/font&gt;&lt;/div&gt;" style="edgeLabel;html=1;align=center;verticalAlign=middle;resizable=0;points=[];" parent="PFJihABpT5-H_5MAtVqF-6" vertex="1" connectable="0">
          <mxGeometry x="-0.198" y="-7" relative="1" as="geometry">
            <mxPoint x="-123" y="59" as="offset" />
          </mxGeometry>
        </mxCell>
        <mxCell id="PFJihABpT5-H_5MAtVqF-5" value="&lt;font style=&quot;font-size: 36px; color: rgb(0, 0, 0);&quot;&gt;&lt;b style=&quot;&quot;&gt;monaco-editor&lt;/b&gt;&lt;/font&gt;" style="shape=ext;double=1;rounded=1;whiteSpace=wrap;html=1;fontSize=24;fillColor=#cdeb8b;strokeColor=#36393d;shadow=0;glass=0;textOpacity=80;sketch=1;curveFitting=1;jiggle=2;" parent="1" vertex="1">
          <mxGeometry x="1193" y="420.12" width="280" height="116" as="geometry" />
        </mxCell>
        <mxCell id="PFJihABpT5-H_5MAtVqF-9" value="&lt;font style=&quot;font-size: 36px;&quot;&gt;monaco api&lt;/font&gt;" style="rounded=1;whiteSpace=wrap;html=1;" parent="1" vertex="1">
          <mxGeometry x="195" y="660.12" width="410" height="90" as="geometry" />
        </mxCell>
        <mxCell id="PFJihABpT5-H_5MAtVqF-10" value="&lt;font style=&quot;font-size: 36px;&quot;&gt;vscode api&lt;/font&gt;" style="rounded=1;whiteSpace=wrap;html=1;" parent="1" vertex="1">
          <mxGeometry x="1136.5" y="660.12" width="410" height="90" as="geometry" />
        </mxCell>
      </root>
    </mxGraphModel>
  </diagram>
</mxfile>
